<svg viewBox="0 0 537 577" fill="none" xmlns="http://www.w3.org/2000/svg">
<path d="M203.149 361.32C134.767 322.44 77.5714 279.02 40.3748 240.24C21.7733 220.85 8.20079 202.65 0.721122 186.79C-6.76814 170.91 -8.08354 157.53 -2.45652 147.63C3.1705 137.73 15.3417 132.02 32.8166 130.33C50.2692 128.64 72.8498 131 99.0271 137.06C151.373 149.18 217.948 176.11 286.33 214.98C354.711 253.86 411.907 297.28 449.104 336.06C467.705 355.45 481.278 373.65 488.758 389.51C496.247 405.39 497.562 418.77 491.935 428.67C486.308 438.57 474.137 444.28 456.662 445.97C439.209 447.65 416.629 445.3 390.452 439.24C338.106 427.11 271.53 400.19 203.149 361.32Z" stroke="white" stroke-width="1.33333"/>
<path d="M191.847 353.51C131.223 303.26 82.3221 250.42 52.263 205.62C37.2309 183.22 26.9331 162.86 22.2227 145.86C17.5063 128.84 18.4312 115.36 25.5869 106.52C32.7425 97.67 45.6232 94.1 63.0392 95.42C80.4328 96.75 102.187 102.95 126.854 113.45C176.179 134.44 237.008 172.55 297.632 222.79C358.256 273.04 407.156 325.88 437.215 370.68C452.247 393.08 462.545 413.44 467.256 430.44C471.972 447.46 471.047 460.94 463.891 469.78C456.736 478.62 443.855 482.2 426.439 480.87C409.045 479.55 387.292 473.35 362.625 462.85C313.299 441.85 252.47 403.75 191.847 353.51Z" stroke="white" stroke-width="1.33333"/>
<path d="M227.421 370.22C149.858 355.54 81.6148 333.01 33.9856 308.45C10.1669 296.17 -8.46165 283.4 -20.5256 270.89C-32.6055 258.35 -37.9923 246.2 -35.6498 235.1C-33.3074 224 -23.4004 214.73 -7.16206 207.56C9.05479 200.39 31.4344 195.39 58.4078 192.72C112.345 187.38 184.494 191.4 262.057 206.08C339.621 220.76 407.864 243.29 455.493 267.85C479.312 280.13 497.94 292.9 510.004 305.41C522.084 317.94 527.471 330.1 525.128 341.2C522.786 352.3 512.879 361.57 496.641 368.74C480.424 375.91 458.044 380.91 431.071 383.58C377.133 388.92 304.985 384.89 227.421 370.22Z" stroke="white" stroke-width="1.33333"/>
<path d="M214.174 366.49C140.543 338.65 77.3523 304.61 34.7102 272.11C13.3856 255.86 -2.76882 240.01 -12.5276 225.54C-22.2988 211.05 -25.5706 198.08 -21.4355 187.48C-17.3004 176.88 -6.0508 169.4 11.0591 165.08C28.147 160.77 50.9215 159.64 77.8137 161.63C131.589 165.59 201.673 181.96 275.304 209.8C348.936 237.65 412.126 271.69 454.768 304.19C476.093 320.44 492.247 336.29 502.006 350.76C511.777 365.25 515.049 378.22 510.914 388.82C506.779 399.42 495.529 406.89 478.419 411.22C461.331 415.53 438.557 416.66 411.665 414.67C357.889 410.71 287.806 394.34 214.174 366.49Z" stroke="white" stroke-width="1.33333"/>
<path d="M198.02 358.13C132.816 314.11 79.074 266.38 44.8917 224.81C27.7977 204.03 15.6204 184.81 9.33486 168.39C3.04124 151.96 2.70854 138.48 9.02934 129.01C15.3502 119.55 27.8773 114.75 45.3879 114.39C62.8762 114.02 85.1723 118.08 110.776 126.12C161.976 142.2 226.254 174.14 291.458 218.17C356.663 262.19 410.405 309.92 444.587 351.49C461.681 372.27 473.858 391.49 480.144 407.91C486.437 424.34 486.77 437.82 480.449 447.29C474.128 456.75 461.601 461.55 444.091 461.91C426.602 462.28 404.306 458.22 378.702 450.18C327.502 434.1 263.224 402.15 198.02 358.13Z" stroke="white" stroke-width="1.33333"/>
<path d="M187.344 349.47C130.689 294.67 85.8868 238.16 59.2457 191.11C45.9229 167.58 37.1616 146.45 33.7144 129.11C30.2628 111.74 32.1669 98.3299 39.931 90.0399C47.6951 81.7399 60.7716 79.1399 78.0042 81.7899C95.2144 84.4199 116.407 92.2699 140.185 104.63C187.732 129.34 245.478 172.02 302.134 226.83C358.79 281.63 403.591 338.14 430.233 385.19C443.555 408.72 452.317 429.85 455.764 447.19C459.215 464.56 457.311 477.96 449.547 486.26C441.783 494.56 428.707 497.16 411.474 494.51C394.264 491.88 373.071 484.03 349.293 471.67C301.746 446.96 244 404.28 187.344 349.47Z" stroke="white" stroke-width="1.33333"/>
<path d="M221.521 368.87C145.417 348.33 79.1594 320.65 33.5598 292.51C10.7562 278.43 -6.8478 264.26 -17.9384 250.84C-29.0434 237.4 -33.5172 224.84 -30.3764 213.92C-27.2356 203 -16.7017 194.49 -0.0218983 188.55C16.6362 182.62 39.2691 179.3 66.302 178.68C120.359 177.42 191.852 186.9 267.957 207.43C344.062 227.96 410.319 255.65 455.919 283.79C478.723 297.87 496.326 312.04 507.417 325.46C518.522 338.9 522.996 351.46 519.855 362.38C516.714 373.3 506.18 381.81 489.501 387.75C472.842 393.68 450.21 397 423.177 397.62C369.12 398.88 297.626 389.4 221.521 368.87Z" stroke="white" stroke-width="1.33333"/>
<path d="M208.612 364.14C137.38 330.74 76.9889 291.95 36.9308 256.24C16.8985 238.38 1.98074 221.32 -6.6737 206.12C-15.3392 190.9 -17.6487 177.69 -12.761 167.41C-7.8733 157.13 3.86583 150.5 21.2052 147.48C38.5224 144.45 61.2647 145.05 87.8778 149.07C141.095 157.1 209.634 178.76 280.866 212.16C352.098 245.56 412.489 284.35 452.547 320.06C472.58 337.92 487.497 354.98 496.152 370.18C504.817 385.4 507.127 398.61 502.239 408.89C497.351 419.17 485.612 425.8 468.273 428.82C450.956 431.84 428.213 431.24 401.6 427.23C348.383 419.2 279.844 397.54 208.612 364.14Z" stroke="white" stroke-width="1.33333"/>
<path d="M169.346 323.19C138.215 249.86 118.543 179.55 111.893 125.15C108.567 97.9499 108.503 74.7698 111.869 57.1998C115.239 39.5998 122.01 27.8098 132.201 23.0698C142.392 18.3298 155.297 20.9899 170.035 30.1699C184.752 39.3299 201.148 54.9198 218.209 75.7398C252.325 117.37 289.001 179.78 320.132 253.11C351.264 326.44 370.936 396.75 377.586 451.14C380.911 478.35 380.975 501.53 377.61 519.1C374.24 536.7 367.469 548.49 357.278 553.23C347.087 557.97 334.181 555.31 319.443 546.13C304.727 536.97 288.331 521.38 271.27 500.56C237.154 458.93 200.477 396.52 169.346 323.19Z" stroke="white" stroke-width="1.33333"/>
<path d="M165.011 309.93C146.618 231.94 138.964 158.89 141.445 103.86C142.685 76.3399 146.459 53.3599 152.667 36.5199C158.885 19.6599 167.477 9.13987 178.249 6.19987C189.021 3.24987 201.236 8.08989 214.171 19.7199C227.086 31.3299 240.585 49.5899 253.87 73.1399C280.437 120.24 306.074 188.37 324.467 266.36C342.86 344.36 350.514 417.4 348.034 472.44C346.793 499.96 343.02 522.94 336.811 539.78C330.594 556.64 322.002 567.16 311.23 570.1C300.458 573.05 288.243 568.21 275.308 556.58C262.393 544.97 248.894 526.71 235.608 503.16C209.042 456.06 183.404 387.93 165.011 309.93Z" stroke="white" stroke-width="1.33333"/>
<path d="M183.243 345.2C130.776 286.22 90.2267 226.42 67.0747 177.42C55.4967 152.91 48.2867 131.14 46.0948 113.55C43.9001 95.94 46.7528 82.6799 55.0708 74.9599C63.3888 67.2499 76.587 65.62 93.548 69.53C110.487 73.44 131.016 82.8599 153.797 96.9699C199.349 125.19 253.767 172.13 306.235 231.1C358.703 290.08 399.252 349.88 422.404 398.88C433.982 423.39 441.192 445.15 443.384 462.75C445.578 480.36 442.726 493.62 434.408 501.34C426.09 509.05 412.892 510.68 395.931 506.77C378.992 502.85 358.462 493.44 335.682 479.33C290.129 451.11 235.711 404.17 183.243 345.2Z" stroke="white" stroke-width="1.33333"/>
<path d="M174.997 334.12C133.305 266.69 103.438 200.48 88.8438 147.95C81.5454 121.69 78.0773 98.8798 78.8392 81.0698C79.6021 63.2398 84.5943 50.5999 94.0248 44.3799C103.455 38.1699 116.666 38.8099 132.651 45.5999C148.615 52.3899 167.19 65.2299 187.194 83.1299C227.194 118.9 272.79 174.75 314.482 242.18C356.174 309.61 386.041 375.82 400.635 428.35C407.933 454.61 411.401 477.42 410.639 495.22C409.877 513.05 404.884 525.7 395.454 531.92C386.023 538.13 372.813 537.49 356.827 530.69C340.863 523.91 322.288 511.07 302.285 493.17C262.285 457.4 216.688 401.55 174.997 334.12Z" stroke="white" stroke-width="1.33333"/>
<path d="M167.169 317.47C141.542 241.83 127.097 170.06 124.448 115.19C123.123 87.7498 124.75 64.5799 129.38 47.2699C134.017 29.9399 141.615 18.6598 152.098 14.6998C162.581 10.7298 175.228 14.3599 189.223 24.6499C203.198 34.9199 218.375 51.7498 233.832 73.8398C264.742 118.03 296.683 183.18 322.31 258.83C347.937 334.47 362.381 406.24 365.031 461.11C366.356 488.55 364.728 511.72 360.098 529.03C355.461 546.36 347.863 557.64 337.38 561.6C326.897 565.57 314.251 561.94 300.255 551.65C286.28 541.38 271.103 524.55 255.646 502.46C224.737 458.27 192.796 393.12 167.169 317.47Z" stroke="white" stroke-width="1.33333"/>
<path d="M163.823 303.89C151.211 224.55 148.923 150.96 155.405 96.1399C158.647 68.7299 164.078 46.0399 171.483 29.6899C178.9 13.3099 188.217 3.43999 199.147 1.30999C210.077 -0.810013 221.877 4.93997 233.9 17.54C245.904 30.12 258.004 49.3899 269.505 73.9399C292.503 123.02 313.044 193.06 325.656 272.4C338.268 351.75 340.556 425.34 334.073 480.16C330.831 507.57 325.4 530.26 317.995 546.61C310.578 562.99 301.262 572.86 290.332 574.99C279.402 577.11 267.601 571.36 255.578 558.76C243.574 546.18 231.474 526.91 219.973 502.36C196.975 453.28 176.435 383.24 163.823 303.89Z" stroke="white" stroke-width="1.33333"/>
<path d="M179.391 340.52C131.487 277.61 95.5027 214.77 76.0405 164.04C66.3078 138.67 60.7215 116.37 59.8237 98.6199C58.9247 80.8499 62.7306 67.8098 71.5685 60.7298C80.4065 53.6498 93.6568 53.0198 110.248 58.2098C126.817 63.3998 146.558 74.3598 168.195 90.1898C211.461 121.84 262.184 172.87 310.087 235.78C357.991 298.69 393.976 361.53 413.438 412.26C423.17 437.63 428.757 459.93 429.655 477.68C430.554 495.45 426.748 508.49 417.91 515.57C409.072 522.65 395.821 523.28 379.23 518.09C362.662 512.9 342.921 501.94 321.284 486.11C278.017 454.46 227.295 403.43 179.391 340.52Z" stroke="white" stroke-width="1.33333"/>
<path d="M312.051 327.931C275.486 257.381 250.598 188.951 239.908 135.351C234.561 108.541 232.774 85.4808 234.831 67.7408C236.891 49.9808 242.78 37.7207 252.615 32.2207C262.45 26.7207 275.546 28.3707 290.958 36.3607C306.347 44.3507 323.892 58.5908 342.491 77.9908C379.682 116.771 420.977 176.041 457.542 246.591C494.107 317.141 518.995 385.571 529.685 439.171C535.031 465.981 536.818 489.031 534.762 506.771C532.702 524.541 526.812 536.801 516.977 542.301C507.142 547.801 494.046 546.151 478.635 538.161C463.245 530.171 445.7 515.921 427.101 496.531C389.911 457.751 348.615 398.481 312.051 327.931Z" stroke="white" stroke-width="1.33333"/>
</svg>
